<?xml version="1.0" encoding="utf-8"?>
<!-- Generator: Adobe Illustrator 27.2.0, SVG Export Plug-In . SVG Version: 6.00 Build 0)  -->
<svg version="1.1" id="Layer_1" xmlns="http://www.w3.org/2000/svg" xmlns:xlink="http://www.w3.org/1999/xlink" x="0px" y="0px"
	 viewBox="0 0 509 289.5" style="enable-background:new 0 0 509 289.5;" xml:space="preserve">
<style type="text/css">
	.st0{fill:url(#SVGID_1_);}
	.st1{fill:#27BAA5;}
	.st2{fill:#FFFFFF;}
	.st3{font-family:'LucidaHandwriting-Italic';}
	.st4{font-size:98.8903px;}
</style>
<g>
	<linearGradient id="SVGID_1_" gradientUnits="userSpaceOnUse" x1="42.8506" y1="141.1246" x2="406.5406" y2="141.1246">
		<stop  offset="0" style="stop-color:#11BED3"/>
		<stop  offset="1" style="stop-color:#019471"/>
	</linearGradient>
	<path class="st0" d="M402.7,144.1c1.7,0,3.1,0.3,4.4,0.9c0-1.3,0.1-2.6,0.1-3.9c0-5.5-0.5-10.9-1.4-16.1c-0.4,0.2-0.8,0.4-1.3,0.6
		c-1.2,0.7-2.5,0.9-4,0.9h-0.3c-1.8,0-3.6-0.5-5.2-1.4c-0.7-0.5-1.4-1.1-2.1-1.6c-1.3-1.3-2.2-2.8-2.7-4.5c-0.1-0.9-0.2-1.8-0.4-2.7
		c0-1.4,0.2-2.7,0.9-4c0.4-1.3,1.1-2.4,2.1-3.3c0.9-1,2-1.7,3.3-2.1c1.2-0.6,2.5-0.9,4-0.9h0.3c-2.7-6.9-6.2-13.5-10.3-19.7
		c-1.6,2.3-4.3,3.9-8,3.9c-11.4,0-13-15.2-4.8-19.5c-5-5-10.4-9.5-16.3-13.4c-1.4,3.4-4.4,6-9.1,6c-9.1,0-11.9-9.6-8.6-15.7
		c-6.4-2.8-13.1-5-20.1-6.6c-0.6,4.6-3.8,8.9-9.8,8.9c-7.2,0-10.5-6.1-9.9-11.6c-2.2-0.1-4.5-0.2-6.7-0.2c-5.3,0-10.6,0.4-15.7,1
		c1.5,5.9-1.7,13.2-9.6,13.2c-6,0-9.3-4.3-9.9-8.9c-7.8,2.4-15.1,5.6-22,9.5c4.4,5.9,1.7,16.8-7.9,16.8c-4.3,0-7.2-2.2-8.7-5.2
		c-3.3,2.8-6.4,5.7-9.3,8.9h-62.9v8h56.5c9.2,3.6,7.8,19.8-3.9,19.8c-3,0-5.3-1-7-2.7c-1.1,2.2-2,4.4-2.9,6.7h-125v7.9h122.2
		c-0.7,2.2-1.3,4.5-1.8,6.8c0.5-0.1,1-0.1,1.6-0.1c13.3,0,13.2,20.6,0,20.6c-1.5,0-2.8-0.3-3.9-0.7c0,0.5,0,1.1,0,1.6
		c0,2.2,0.1,4.4,0.2,6.5h-77.5v8h78.4c0.3,2.3,0.8,4.6,1.3,6.9c1.5-1,3.3-1.6,5.6-1.6c13,0,13.2,19.7,0.8,20.5
		c0.8,1.8,1.6,3.5,2.5,5.2H43.5v7.9h159c0.8,1.3,1.7,2.5,2.5,3.7c1.6-2.4,4.3-4.1,8.1-4.1c11.2,0,12.9,14.8,5.1,19.3
		c1.1,1,2.2,2,3.4,3h-89.5v8h99.8c1.3,0.9,2.7,1.8,4,2.6c1-4.1,4.2-7.5,9.6-7.5c9.5,0,12.2,10.5,8.1,16.5c7,2.8,14.4,5,22.1,6.3
		c-0.6-5.5,2.7-11.5,9.9-11.5c8,0,11.2,7.5,9.5,13.4c0.6,0,1.1,0,1.7,0c7.9,0,15.7-0.8,23.1-2.3c-2.6-6.1,0.4-14.8,9-14.8
		c6.2,0,9.5,4.5,9.9,9.3c7-2.7,13.5-6,19.7-9.9c-6.2-5.3-4.1-18.3,6.5-18.3c4.9,0,7.9,2.8,9.2,6.3c4.8-4.4,9.1-9.2,13-14.4
		c-9.7-3.2-8.5-20,3.5-20c3,0,5.3,1.1,7,2.7c2.8-5.8,5-12,6.6-18.3c-0.5,0.1-1,0.1-1.6,0.1C389.4,164.7,389.5,144.1,402.7,144.1z
		 M295.8,220.1c-2.3,0-4.6-0.1-6.9-0.3c-0.9-0.3-1.9-0.5-3-0.5c-0.4,0-0.7,0-1.1,0c-41.5-5.1-73.6-38.8-73.6-79.7
		c0-37.5,26.9-68.9,63.3-77.9c0.8-0.1,1.6-0.3,2.3-0.5c6.1-1.3,12.4-2,18.9-2c27.8,0,52.4,12.7,67.8,32.4c0.2,0.3,0.4,0.5,0.6,0.8
		c6.2,8.2,10.9,17.5,13.5,27.5c0,0.2,0.1,0.4,0.1,0.6c0.1,0.3,0.2,0.5,0.3,0.8c1.4,5.9,2.2,12,2.2,18.2
		C380.3,184.1,342.5,220.1,295.8,220.1z"/>
	<g id="XMLID_00000018943027486588913120000003966426688287146389_">
		<path class="st1" d="M295.7,74.6c22.9,0,43.2,10.4,55.9,26.4c0.2,0.2,0.3,0.4,0.5,0.7c5.1,6.6,9,14.2,11.2,22.4
			c0,0.2,0,0.4,0.1,0.5c0.1,0.2,0.1,0.4,0.2,0.6c1.2,4.8,1.8,9.7,1.8,14.9c0,36.2-31.2,65.5-69.7,65.5c-1.9,0-3.8-0.1-5.7-0.2
			c-0.7-0.2-1.6-0.4-2.5-0.4c-0.3,0-0.6,0-0.9,0c-34.3-4.1-60.7-31.7-60.7-65c0-30.5,22.2-56.2,52.2-63.4c0.7-0.1,1.3-0.2,1.9-0.4
			C285.1,75.2,290.3,74.6,295.7,74.6 M295.7,66.6c-5.8,0-11.6,0.6-17.3,1.8c-0.4,0.1-0.7,0.2-1,0.3c-0.3,0-0.7,0.1-1,0.2
			C242,77.3,218,106.6,218,140.2c0,36.9,29.1,68.2,67.7,72.9c0.3,0,0.6,0.1,1,0.1c0.2,0,0.5,0,0.7,0c0.1,0,0.2,0,0.2,0
			c0,0,0.1,0,0.1,0c0.6,0.2,1.2,0.3,1.8,0.3c2.2,0.2,4.2,0.2,6.3,0.2c42.9,0,77.7-33,77.7-73.5c0-5.6-0.7-11.3-2-16.8
			c0-0.2-0.1-0.4-0.2-0.6c0-0.2-0.1-0.5-0.2-0.7c-2.4-9.1-6.7-17.6-12.6-25.3c-0.1-0.1-0.2-0.3-0.3-0.4c-0.1-0.1-0.2-0.2-0.3-0.4
			c-7.1-9-16.4-16.4-26.9-21.5C320,69.3,308.1,66.6,295.7,66.6L295.7,66.6z"/>
	</g>
	<text transform="matrix(1.5133 0 0 1 232.7344 175.0378)" class="st2 st3 st4">P</text>
</g>
</svg>
